<svg xmlns="http://www.w3.org/2000/svg" width="128.05" height="27.03" viewBox="0 0 128.05 27.03">
  <defs>
    <style>
      .cls-1 {
        fill: #000;
      }
    </style>
  </defs>
  <title>full-logo</title>
  <g id="Layer_2" data-name="Layer 2">
    <g id="Layer_1-2" data-name="Layer 1">
      <g>
        <path id="Shape" class="cls-1" d="M52.94,18.81,52,16.11H47c-.13.42-.28.87-.43,1.36l-.42,1.34H43.71L48.22,6.28h2.61l4.39,12.53ZM49.51,9c-.31.85-.6,1.67-.87,2.47s-.59,1.65-.92,2.55h3.59l-1.8-5Z"/>
        <path class="cls-1" d="M62.54,6.32H58V18.84h2.12V14.58h2.47c2.51,0,3.73-1.06,3.73-3.25V9.56c0-2.18-1.22-3.24-3.73-3.24Zm-2.47,2h2.41c1.44,0,1.67.38,1.67,1.28v1.76c0,.88-.24,1.28-1.67,1.28H60.07V8.29Z"/>
        <path class="cls-1" d="M73.31,6.32H68.72V18.84h2.12V14.58h2.47c2.52,0,3.74-1.06,3.74-3.25V9.56c0-2.18-1.22-3.24-3.74-3.24Zm-2.47,2h2.42c1.44,0,1.67.38,1.67,1.28v1.76c0,.88-.24,1.28-1.67,1.28H70.84V8.29Z"/>
        <path class="cls-1" d="M81.62,17.59h5.76v1.26h-7V6.34h1.25V17.59Z"/>
        <path class="cls-1" d="M98.41,15.2c0,2.09-1.29,3.8-4.51,3.8s-4.5-1.71-4.5-3.8V9.91c0-2.09,1.29-3.8,4.5-3.8s4.51,1.71,4.51,3.8V15.2Zm-7.85,0C90.56,17,91.65,18,94,18s3.38-1,3.38-2.81V9.89c0-1.8-1.09-2.81-3.38-2.81s-3.39,1-3.39,2.81v5.33Z"/>
        <path class="cls-1" d="M100.32,6.34h1.24l4,11.25,4-11.25h1.27l-4.47,12.51h-1.66L100.32,6.34Z"/>
        <path class="cls-1" d="M114.76,18.85H113.5V6.34h1.26V18.85Z"/>
        <path class="cls-1" d="M120.77,7.84v11h-1.18V6.34h1.86L126.87,17V6.34h1.18V18.85h-1.5l-5.78-11Z"/>
        <g id="Layer_6" data-name="Layer 6">
          <path class="cls-1" d="M28.08,19.79a3.54,3.54,0,0,0-1.4.28L18.77,5.83l0,0a3.61,3.61,0,1,0-5.81,0l0,.09L5,20.05a3.64,3.64,0,1,0,1.48,1.13,38.61,38.61,0,0,1,9.49-1,39.24,39.24,0,0,1,9.27,1,3.61,3.61,0,1,0,2.85-1.4ZM15.86,1.48a2.14,2.14,0,1,1-2.14,2.13A2.14,2.14,0,0,1,15.86,1.48ZM3.63,25.54A2.14,2.14,0,1,1,5.76,23.4,2.13,2.13,0,0,1,3.63,25.54ZM16,18.64a40.29,40.29,0,0,0-8.91.85L14.1,6.78h0a3.63,3.63,0,0,0,3.46,0l7.05,12.69A41.86,41.86,0,0,0,16,18.64Zm12.12,6.9a2.14,2.14,0,1,1,2.14-2.14A2.16,2.16,0,0,1,28.08,25.54Z"/>
        </g>
      </g>
    </g>
  </g>
</svg>
