<svg version="1.1" xmlns="http://www.w3.org/2000/svg" x="0" y="0" width="20" height="20" viewBox="0, 0, 32, 32">  <g id="Layer_1">    <path d="M15.875,4 L15.781,4.031 L4.781,6.469 L4,6.656 L4,7.438 L4,24.562 L4,25.344 L4.781,25.531 L15.781,27.969 L15.875,28 L16,28 L17,28 L18,28 L18,27 L18,25 L27,25 L28,25 L28,24 L28,8 L28,7 L27,7 L18,7 L18,5 L18,4 L17,4 L16,4 L15.875,4 z M16,6.031 L16,7 L16,8 L16,24 L16,25 L16,25.969 L6,23.781 L6,8.219 L16,6.031 z M18,9 L26,9 L26,23 L18,23 L18,21 L20,21 L20,19 L18,19 L18,18 L20,18 L20,16 L18,16 L18,15 L20,15 L20,13 L18,13 L18,12 L20,12 L20,10 L18,10 L18,9 z M21,10 L21,12 L25,12 L25,10 L21,10 z M14.156,11 L11.875,11.281 L10.625,13.969 C10.493,14.355 10.393,14.648 10.344,14.844 L10.312,14.844 C10.236,14.519 10.158,14.237 10.062,14 L9.438,11.688 L7.312,11.938 L7.219,12 L9,16 L7,20 L9.156,20.25 L10.031,17.781 C10.136,17.469 10.222,17.215 10.25,17.062 L10.281,17.062 C10.341,17.388 10.38,17.629 10.438,17.75 L11.781,20.688 L14.219,21 L11.562,15.969 L14.156,11 z M21,13 L21,15 L25,15 L25,13 L21,13 z M21,16 L21,18 L25,18 L25,16 L21,16 z M21,19 L21,21 L25,21 L25,19 L21,19 z" fill="rgb(111,118,127)"/>  </g></svg>